<svg width="71" height="90" viewBox="0 0 71 90" fill="none" xmlns="http://www.w3.org/2000/svg">
<path fill-rule="evenodd" clip-rule="evenodd" d="M33.0128 43.3021V8.06556C33.0128 5.35047 35.2921 3.10352 38.0464 3.10352C40.8006 3.10352 43.0799 5.35047 43.0799 8.06556V40.4906C43.4888 40.4699 43.9004 40.4594 44.3145 40.4594C44.6966 40.4594 45.0765 40.4684 45.4542 40.486V16.3981C45.4542 13.683 47.7336 11.436 50.4877 11.436C53.2419 11.436 55.5212 13.683 55.5212 16.3981V43.2509C56.3093 43.6718 57.0701 44.136 57.8007 44.6398V24.7305C57.8007 22.0155 60.08 19.7686 62.8342 19.7686C65.5884 19.7686 67.8677 22.0155 67.8677 24.7305V62.9289C67.8677 63.0075 67.8658 63.0856 67.8621 63.1631C67.8658 63.3343 67.8677 63.5059 67.8677 63.6781C67.8677 76.5013 57.3225 86.8967 44.3145 86.8967C36.7244 86.8967 29.9727 83.3574 25.6653 77.8617C25.2579 77.5566 24.8851 77.197 24.5604 76.7853L5.37581 52.2559C3.3814 49.7281 3.95124 45.9831 6.51549 44.0171C9.07975 42.0511 12.8786 42.6127 14.8731 45.1405L20.6663 52.5479V16.3981C20.6663 13.683 22.9456 11.436 25.7 11.436C28.4541 11.436 30.7334 13.683 30.7334 16.3981V44.7055C31.4637 44.1967 32.2246 43.7277 33.0128 43.3021Z" stroke="#DB1B3C" stroke-width="3"/>
<path d="M57.574 54.3537C56.7385 53.54 55.7466 52.8949 54.6549 52.4547C53.5631 52.0142 52.3931 51.7877 51.2113 51.7877C50.0296 51.7877 48.8594 52.0142 47.7678 52.4547C46.6759 52.8949 45.684 53.54 44.8487 54.3537L43.115 56.0411L41.381 54.3537C39.6935 52.7113 37.4048 51.7887 35.0185 51.7887C32.6319 51.7887 30.3432 52.7113 28.6557 54.3537C26.9682 55.9959 26.0203 58.2235 26.0203 60.5461C26.0203 62.8688 26.9682 65.0962 28.6557 66.7386L30.3895 68.426L43.115 80.811L55.8403 68.426L57.574 66.7386C58.4097 65.9256 59.0727 64.9601 59.5252 63.8977C59.9775 62.8351 60.2104 61.6963 60.2104 60.5461C60.2104 59.396 59.9775 58.2572 59.5252 57.1946C59.0727 56.132 58.4097 55.1667 57.574 54.3537Z" fill="#DB1B3C"/>
</svg>
