<svg xmlns="http://www.w3.org/2000/svg" width="33" height="33" viewBox="0 0 33 33">
  <defs>
    <style>
      .cls-1 {
        opacity: 0.3;
      }

      .cls-2 {
        fill: #fff;
        fill-rule: evenodd;
      }
    </style>
  </defs>
  <circle id="Ellipse_17_copy" data-name="Ellipse 17 copy" class="cls-1" cx="16.5" cy="16.5" r="16.5"/>
  <path class="cls-2" d="M25.949,23.046c0.966,0.95,1.9,1.9,2.843,2.879a0.688,0.688,0,0,1-.966.979l-2.843-2.879-2.65,2.684a0.688,0.688,0,0,1-.966-0.978l2.65-2.684L21.56,20.558a0.688,0.688,0,0,1,.966-0.978l2.457,2.488,2.65-2.684a0.688,0.688,0,0,1,.966.978Zm-9.22-6.122a4.712,4.712,0,0,1-1.021,4.109,3.478,3.478,0,0,1-3.092,1.23A2.479,2.479,0,0,1,10.6,20.194a3.277,3.277,0,0,1,1.077-2.935,2.741,2.741,0,0,0,.8-0.895,1.4,1.4,0,0,0-.386-1.23,18.02,18.02,0,0,1-1.021-1.51,2.918,2.918,0,0,1-.166-1.873A4.735,4.735,0,0,1,17.64,8.425a4.849,4.849,0,0,1,.966,7.883,0.688,0.688,0,0,1-.966-0.978,3.487,3.487,0,0,0,.966-4A3.351,3.351,0,0,0,15.735,9.32c-1.96-.112-4.5,2.153-3.119,4.109a5.378,5.378,0,0,1,1.325,2.656,2.64,2.64,0,0,1-.966,1.817,2.564,2.564,0,0,0-1.049,1.761,1.133,1.133,0,0,0,1.132,1.23c1.794,0.028,2.622-2.125,2.346-3.606C15.239,16.42,16.564,16.029,16.729,16.924Zm5.742,0.5a33.926,33.926,0,0,1-2.346,2.544,7.424,7.424,0,0,0-1.712,4.249v0.028a12.994,12.994,0,0,0-.221,1.342,4.755,4.755,0,0,1-4.5,3.41A4.773,4.773,0,0,1,9,24.248a0.69,0.69,0,0,1,1.38,0,3.305,3.305,0,0,0,6.515.839c0.248-1.985.524-4.026,1.794-5.619a24.9,24.9,0,0,1,1.932-1.9,7.148,7.148,0,0,0,1.711-3.019,7.4,7.4,0,0,0-1.1-6.206,7.022,7.022,0,0,0-11.07-.419c-0.552.7-1.518-.28-0.966-0.978a8.006,8.006,0,0,1,7.288-2.879,8.611,8.611,0,0,1,7.4,9.784A8.385,8.385,0,0,1,22.471,17.427Z"/>
</svg>
