<svg xmlns="http://www.w3.org/2000/svg" width="23" height="16" viewBox="0 0 23 16">
  <defs>
    <style>
      .cls-1 {
        fill-rule: evenodd;
      }
    </style>
  </defs>
  <path id="closed" class="cls-1" d="M987.713,564.128A18.055,18.055,0,0,0,989,562.273c-2.629-4.41-6.793-7.273-11.5-7.273s-8.871,2.863-11.5,7.273a18.055,18.055,0,0,0,1.287,1.855l-0.46.465a0.735,0.735,0,0,0,0,1.03,0.711,0.711,0,0,0,1.016,0l0.378-.382a15.385,15.385,0,0,0,1.149,1.1l-0.47.824a0.732,0.732,0,0,0,.264.993,0.713,0.713,0,0,0,.981-0.266l0.377-.661a13.1,13.1,0,0,0,1.316.817L971.56,569.1a0.728,0.728,0,0,0,.509.89,0.716,0.716,0,0,0,.88-0.514l0.213-.806a11.6,11.6,0,0,0,1.463.483v1.122a0.719,0.719,0,1,0,1.437,0v-0.837a9.533,9.533,0,0,0,2.875,0v0.837a0.719,0.719,0,1,0,1.438,0v-1.121a11.649,11.649,0,0,0,1.463-.483l0.213,0.805a0.715,0.715,0,0,0,.88.514,0.726,0.726,0,0,0,.508-0.89l-0.277-1.051a13.674,13.674,0,0,0,1.316-.817l0.377,0.659a0.712,0.712,0,0,0,.981.266,0.732,0.732,0,0,0,.264-0.993l-0.47-.824a15.567,15.567,0,0,0,1.149-1.1l0.378,0.382a0.712,0.712,0,0,0,1.016,0,0.735,0.735,0,0,0,0-1.03ZM977.5,568.091c-3.788,0-7.317-2.108-9.794-5.818,2.477-3.711,6.006-5.819,9.794-5.819s7.317,2.108,9.794,5.819C984.817,565.983,981.287,568.091,977.5,568.091Z" transform="translate(-966 -555)"/>
</svg>
