<svg width="68" height="87" viewBox="0 0 68 87" fill="none" xmlns="http://www.w3.org/2000/svg">
<mask id="path-1-outside-1" maskUnits="userSpaceOnUse" x="0" y="0" width="68" height="87" fill="black">
<rect fill="white" width="68" height="87"/>
<path fill-rule="evenodd" clip-rule="evenodd" d="M31.6179 41.8585V7.79665C31.6179 5.17207 33.8009 3 36.4387 3C39.0765 3 41.2596 5.17207 41.2596 7.79665V39.1409C41.6512 39.1208 42.0454 39.1106 42.442 39.1106C42.808 39.1106 43.1719 39.1193 43.5335 39.1364V15.8514C43.5335 13.2268 45.7166 11.0547 48.3544 11.0547C50.9922 11.0547 53.1752 13.2268 53.1752 15.8514V41.8092C53.9299 42.2161 54.6586 42.6647 55.3583 43.1517V23.9061C55.3583 21.2816 57.5413 19.1095 60.1791 19.1095C62.817 19.1095 65 21.2816 65 23.9061V60.8313C65 60.9072 64.9982 60.9826 64.9946 61.0576C64.9982 61.2231 65 61.389 65 61.5553C65 73.9512 54.9004 84 42.442 84C35.1726 84 28.7063 80.5787 24.5809 75.2662C24.1906 74.9713 23.8336 74.6237 23.5225 74.2257L5.14863 50.514C3.23848 48.0704 3.78424 44.4503 6.24015 42.5497C8.69605 40.6492 12.3344 41.1922 14.2446 43.6358L19.7931 50.7962V15.8514C19.7931 13.2268 21.9761 11.0547 24.614 11.0547C27.2518 11.0547 29.4348 13.2268 29.4348 15.8514V43.2153C30.1342 42.7234 30.8629 42.2701 31.6179 41.8585Z"/>
</mask>
<path d="M31.6179 41.8585L33.0539 44.4925L34.6179 43.6398V41.8585H31.6179ZM41.2596 39.1409H38.2596V42.299L41.4135 42.137L41.2596 39.1409ZM43.5335 39.1364L43.3915 42.1331L46.5335 42.282V39.1364H43.5335ZM53.1752 41.8092H50.1752V43.5998L51.7513 44.4497L53.1752 41.8092ZM55.3583 43.1517L53.6444 45.6139L58.3583 48.8953V43.1517H55.3583ZM64.9946 61.0576L61.998 60.9134L61.993 61.0182L61.9953 61.1232L64.9946 61.0576ZM24.5809 75.2662L26.9503 73.4262L26.7065 73.1121L26.3892 72.8724L24.5809 75.2662ZM23.5225 74.2257L21.1511 76.0633L21.1589 76.0733L23.5225 74.2257ZM5.14863 50.514L7.52003 48.6764L7.51219 48.6664L5.14863 50.514ZM6.24015 42.5497L4.4041 40.1772L6.24015 42.5497ZM14.2446 43.6358L16.616 41.7982L16.6081 41.7882L14.2446 43.6358ZM19.7931 50.7962L17.4217 52.6338L22.7931 59.5656V50.7962H19.7931ZM29.4348 43.2153H26.4348V48.9934L31.1608 45.6691L29.4348 43.2153ZM34.6179 41.8585V7.79665H28.6179V41.8585H34.6179ZM34.6179 7.79665C34.6179 6.84314 35.4435 6 36.4387 6V0C32.1583 0 28.6179 3.50099 28.6179 7.79665H34.6179ZM36.4387 6C37.4339 6 38.2596 6.84314 38.2596 7.79665H44.2596C44.2596 3.50099 40.7191 0 36.4387 0V6ZM38.2596 7.79665V39.1409H44.2596V7.79665H38.2596ZM42.442 36.1106C41.994 36.1106 41.5485 36.1221 41.1056 36.1449L41.4135 42.137C41.7539 42.1195 42.0968 42.1106 42.442 42.1106V36.1106ZM43.6756 36.1398C43.2666 36.1204 42.8554 36.1106 42.442 36.1106V42.1106C42.7606 42.1106 43.0771 42.1182 43.3915 42.1331L43.6756 36.1398ZM40.5335 15.8514V39.1364H46.5335V15.8514H40.5335ZM48.3544 8.05475C44.074 8.05475 40.5335 11.5557 40.5335 15.8514H46.5335C46.5335 14.8979 47.3592 14.0547 48.3544 14.0547V8.05475ZM56.1752 15.8514C56.1752 11.5557 52.6348 8.05475 48.3544 8.05475V14.0547C49.3496 14.0547 50.1752 14.8979 50.1752 15.8514H56.1752ZM56.1752 41.8092V15.8514H50.1752V41.8092H56.1752ZM57.0722 40.6895C56.2798 40.1379 55.4543 39.6298 54.5992 39.1686L51.7513 44.4497C52.4056 44.8025 53.0375 45.1915 53.6444 45.6139L57.0722 40.6895ZM58.3583 43.1517V23.9061H52.3583V43.1517H58.3583ZM58.3583 23.9061C58.3583 22.9526 59.1839 22.1095 60.1791 22.1095V16.1095C55.8987 16.1095 52.3583 19.6105 52.3583 23.9061H58.3583ZM60.1791 22.1095C61.1744 22.1095 62 22.9526 62 23.9061H68C68 19.6105 64.4596 16.1095 60.1791 16.1095V22.1095ZM62 23.9061V60.8313H68V23.9061H62ZM62 60.8313C62 60.859 61.9993 60.8864 61.998 60.9134L67.9911 61.2019C67.997 61.0789 68 60.9553 68 60.8313H62ZM68 61.5553C68 61.3671 67.9979 61.1794 67.9938 60.992L61.9953 61.1232C61.9984 61.2668 62 61.4108 62 61.5553H68ZM42.442 87C56.543 87 68 75.6222 68 61.5553H62C62 72.2801 53.2578 81 42.442 81V87ZM22.2114 77.1061C26.8828 83.1218 34.2102 87 42.442 87V81C36.135 81 30.5298 78.0356 26.9503 73.4262L22.2114 77.1061ZM21.1589 76.0733C21.6343 76.6814 22.1791 77.2116 22.7725 77.6599L26.3892 72.8724C26.2021 72.7311 26.0329 72.566 25.886 72.3781L21.1589 76.0733ZM2.77725 52.3515L21.1511 76.0632L25.8938 72.3882L7.52001 48.6764L2.77725 52.3515ZM4.4041 40.1772C0.705912 43.0391 -0.2046 48.537 2.78508 52.3616L7.51219 48.6664C6.68157 47.6038 6.86257 45.8614 8.07619 44.9223L4.4041 40.1772ZM16.6081 41.7882C13.7324 38.1094 8.23076 37.2158 4.4041 40.1772L8.07619 44.9223C9.16134 44.0825 10.9364 44.275 11.881 45.4834L16.6081 41.7882ZM22.1645 48.9587L16.616 41.7982L11.8732 45.4733L17.4217 52.6338L22.1645 48.9587ZM16.7931 15.8514V50.7962H22.7931V15.8514H16.7931ZM24.614 8.05475C20.3335 8.05475 16.7931 11.5557 16.7931 15.8514H22.7931C22.7931 14.8979 23.6187 14.0547 24.614 14.0547V8.05475ZM32.4348 15.8514C32.4348 11.5557 28.8944 8.05475 24.614 8.05475V14.0547C25.6092 14.0547 26.4348 14.8979 26.4348 15.8514H32.4348ZM32.4348 43.2153V15.8514H26.4348V43.2153H32.4348ZM30.1818 39.2245C29.3264 39.6909 28.5009 40.2044 27.7088 40.7616L31.1608 45.6691C31.7674 45.2424 32.3994 44.8493 33.0539 44.4925L30.1818 39.2245Z" fill="white" mask="url(#path-1-outside-1)"/>
<path d="M55.1411 52.5418C54.341 51.7554 53.391 51.1317 52.3454 50.7061C51.2998 50.2805 50.1791 50.0614 49.0473 50.0614C47.9155 50.0614 46.7948 50.2805 45.7492 50.7061C44.7036 51.1317 43.7536 51.7554 42.9535 52.5418L41.293 54.173L39.6324 52.5418C38.0162 50.9542 35.8242 50.0623 33.5386 50.0623C31.253 50.0623 29.061 50.9542 27.4448 52.5418C25.8286 54.1294 24.9207 56.2827 24.9207 58.5279C24.9207 60.7731 25.8286 62.9264 27.4448 64.514L29.1053 66.1451L41.293 78.1173L53.4806 66.1451L55.1411 64.514C55.9416 63.728 56.5766 62.7948 57.0098 61.7677C57.4431 60.7406 57.6661 59.6397 57.6661 58.5279C57.6661 57.4161 57.4431 56.3152 57.0098 55.2881C56.5766 54.261 55.9416 53.3278 55.1411 52.5418V52.5418Z" fill="white"/>
</svg>
