<svg width="37" height="47" viewBox="0 0 37 47" fill="none" xmlns="http://www.w3.org/2000/svg">
<mask id="mask0" mask-type="alpha" maskUnits="userSpaceOnUse" x="0" y="0" width="37" height="47">
<path d="M37 0H0V47H37V0Z" fill="white"/>
<path fill-rule="evenodd" clip-rule="evenodd" d="M17.2039 22.6133V4.21202C17.2039 2.79414 18.3917 1.62073 19.827 1.62073C21.2623 1.62073 22.4501 2.79414 22.4501 4.21202V21.1451C22.6632 21.1343 22.8777 21.1288 23.0935 21.1288C23.2926 21.1288 23.4906 21.1335 23.6874 21.1427V8.56344C23.6874 7.14555 24.8753 5.97212 26.3105 5.97212C27.7458 5.97212 28.9336 7.14555 28.9336 8.56344V22.5866C29.3443 22.8064 29.7408 23.0488 30.1215 23.3119V12.9148C30.1215 11.497 31.3093 10.3236 32.7446 10.3236C34.1799 10.3236 35.3677 11.497 35.3677 12.9148V32.8629C35.3677 32.9039 35.3667 32.9447 35.3648 32.9852C35.3667 33.0746 35.3677 33.1642 35.3677 33.2541C35.3677 39.9507 29.8723 45.3794 23.0935 45.3794C19.1381 45.3794 15.6196 43.5311 13.3749 40.6611C13.1626 40.5018 12.9683 40.314 12.7991 40.099L2.8015 27.2892C1.76216 25.9691 2.05912 24.0134 3.39542 22.9867C4.73172 21.96 6.71141 22.2533 7.75078 23.5734L10.7698 27.4417V8.56344C10.7698 7.14555 11.9576 5.97212 13.393 5.97212C14.8282 5.97212 16.016 7.14555 16.016 8.56344V23.3462C16.3966 23.0805 16.7931 22.8356 17.2039 22.6133Z" fill="black"/>
</mask>
<g mask="url(#mask0)">
<path d="M17.2039 22.6132L17.9852 24.0362L18.8362 23.5755V22.6132H17.2039ZM22.4501 21.1451H20.8177V22.8512L22.5338 22.7637L22.4501 21.1451ZM23.6874 21.1427L23.6101 22.7616L25.3197 22.842V21.1427H23.6874ZM28.9336 22.5866H27.3012V23.5539L28.1588 24.0131L28.9336 22.5866ZM30.1214 23.3118L29.1889 24.642L31.7538 26.4147V23.3118H30.1214ZM35.3647 32.9851L33.7342 32.9072L33.7315 32.9639L33.7328 33.0206L35.3647 32.9851ZM13.3749 40.661L14.6641 39.667L14.5315 39.4973L14.3588 39.3678L13.3749 40.661ZM12.799 40.0989L11.5087 41.0917L11.5129 41.0971L12.799 40.0989ZM2.80147 27.2892L4.09179 26.2964L4.08753 26.291L2.80147 27.2892ZM3.39539 22.9866L2.39636 21.7049L3.39539 22.9866ZM7.75075 23.5734L9.04107 22.5806L9.03677 22.5752L7.75075 23.5734ZM10.7698 27.4416L9.47947 28.4344L12.4021 32.1791V27.4416H10.7698ZM16.016 23.3462H14.3837V26.4677L16.9552 24.6718L16.016 23.3462ZM18.8362 22.6132V4.21198H15.5715V22.6132H18.8362ZM18.8362 4.21198C18.8362 3.69687 19.2854 3.24138 19.827 3.24138V0C17.4979 0 15.5715 1.89134 15.5715 4.21198H18.8362ZM19.827 3.24138C20.3685 3.24138 20.8177 3.69687 20.8177 4.21198H24.0824C24.0824 1.89134 22.156 0 19.827 0V3.24138ZM20.8177 4.21198V21.1451H24.0824V4.21198H20.8177ZM23.0935 19.508C22.8497 19.508 22.6073 19.5142 22.3663 19.5266L22.5338 22.7637C22.719 22.7542 22.9056 22.7494 23.0935 22.7494V19.508ZM23.7647 19.5238C23.5421 19.5133 23.3184 19.508 23.0935 19.508V22.7494C23.2668 22.7494 23.439 22.7535 23.6101 22.7616L23.7647 19.5238ZM22.055 8.5634V21.1427H25.3197V8.5634H22.055ZM26.3105 4.35142C23.9815 4.35142 22.055 6.24273 22.055 8.5634H25.3197C25.3197 8.04829 25.769 7.59277 26.3105 7.59277V4.35142ZM30.5659 8.5634C30.5659 6.24273 28.6395 4.35142 26.3105 4.35142V7.59277C26.852 7.59277 27.3012 8.04829 27.3012 8.5634H30.5659ZM30.5659 22.5866V8.5634H27.3012V22.5866H30.5659ZM31.054 21.9817C30.6228 21.6837 30.1737 21.4092 29.7084 21.16L28.1588 24.0131C28.5148 24.2036 28.8587 24.4138 29.1889 24.642L31.054 21.9817ZM31.7538 23.3118V12.9148H28.4891V23.3118H31.7538ZM31.7538 12.9148C31.7538 12.3997 32.203 11.9442 32.7445 11.9442V8.70283C30.4155 8.70283 28.4891 10.5942 28.4891 12.9148H31.7538ZM32.7445 11.9442C33.2861 11.9442 33.7353 12.3997 33.7353 12.9148H37C37 10.5942 35.0736 8.70283 32.7445 8.70283V11.9442ZM33.7353 12.9148V32.8629H37V12.9148H33.7353ZM33.7353 32.8629C33.7353 32.8778 33.7349 32.8927 33.7342 32.9072L36.9952 33.0631C36.9984 32.9966 37 32.9299 37 32.8629H33.7353ZM37 33.254C37 33.1523 36.9989 33.0509 36.9966 32.9497L33.7328 33.0206C33.7344 33.0982 33.7353 33.1759 33.7353 33.254H37ZM23.0935 47C30.7661 47 37 40.8534 37 33.254H33.7353C33.7353 39.0479 28.9785 43.7586 23.0935 43.7586V47ZM12.0856 41.655C14.6274 44.9049 18.6144 47 23.0935 47V43.7586C19.6617 43.7586 16.6118 42.1572 14.6641 39.667L12.0856 41.655ZM11.5129 41.0971C11.7716 41.4256 12.0681 41.712 12.3909 41.9542L14.3588 39.3678C14.257 39.2915 14.165 39.2023 14.085 39.1008L11.5129 41.0971ZM1.51116 28.2818L11.5087 41.0916L14.0893 39.1063L4.09178 26.2964L1.51116 28.2818ZM2.39636 21.7049C0.384112 23.251 -0.111313 26.2211 1.51542 28.2873L4.08753 26.291C3.63557 25.717 3.73406 24.7757 4.39441 24.2684L2.39636 21.7049ZM9.03677 22.5752C7.47206 20.5878 4.47852 20.1051 2.39636 21.7049L4.39441 24.2684C4.98486 23.8147 5.9507 23.9187 6.46467 24.5715L9.03677 22.5752ZM12.0601 26.449L9.04107 22.5806L6.46043 24.566L9.47947 28.4344L12.0601 26.449ZM9.13744 8.5634V27.4416H12.4021V8.5634H9.13744ZM13.3929 4.35142C11.0638 4.35142 9.13744 6.24273 9.13744 8.5634H12.4021C12.4021 8.04829 12.8514 7.59277 13.3929 7.59277V4.35142ZM17.6484 8.5634C17.6484 6.24273 15.722 4.35142 13.3929 4.35142V7.59277C13.9344 7.59277 14.3837 8.04829 14.3837 8.5634H17.6484ZM17.6484 23.3462V8.5634H14.3837V23.3462H17.6484ZM16.4225 21.1902C15.957 21.4422 15.5079 21.7196 15.0769 22.0206L16.9552 24.6718C17.2852 24.4413 17.6291 24.2289 17.9852 24.0362L16.4225 21.1902Z" fill="white"/>
<path d="M30.0033 28.3847C29.5679 27.9598 29.051 27.6229 28.4821 27.393C27.9131 27.163 27.3034 27.0447 26.6875 27.0447C26.0717 27.0447 25.4619 27.163 24.893 27.393C24.324 27.6229 23.8071 27.9598 23.3718 28.3847L22.4683 29.2659L21.5647 28.3847C20.6853 27.527 19.4926 27.0452 18.249 27.0452C17.0053 27.0452 15.8126 27.527 14.9332 28.3847C14.0538 29.2423 13.5598 30.4056 13.5598 31.6185C13.5598 32.8315 14.0538 33.9947 14.9332 34.8524L15.8367 35.7336L22.4683 42.2013L29.0998 35.7336L30.0033 34.8524C30.4388 34.4278 30.7843 33.9236 31.0201 33.3688C31.2558 32.8139 31.3772 32.2192 31.3772 31.6185C31.3772 31.0179 31.2558 30.4232 31.0201 29.8683C30.7843 29.3134 30.4388 28.8093 30.0033 28.3847Z" fill="white"/>
</g>
</svg>
