<svg width="41" height="52" viewBox="0 0 41 52" fill="none" xmlns="http://www.w3.org/2000/svg">
<path fill-rule="evenodd" clip-rule="evenodd" d="M19.0638 25.0189V4.66005C19.0638 3.09133 20.38 1.79309 21.9705 1.79309C23.561 1.79309 24.8772 3.09133 24.8772 4.66005V23.3945C25.1133 23.3826 25.351 23.3765 25.5901 23.3765C25.8108 23.3765 26.0302 23.3817 26.2483 23.3919V9.47439C26.2483 7.90566 27.5646 6.60739 29.1549 6.60739C30.7454 6.60739 32.0616 7.90566 32.0616 9.47439V24.9894C32.5167 25.2326 32.9561 25.5007 33.3779 25.7918V14.2887C33.3779 12.72 34.6941 11.4218 36.2846 11.4218C37.8751 11.4218 39.1913 12.72 39.1913 14.2887V36.3589C39.1913 36.4043 39.1902 36.4494 39.1881 36.4942C39.1902 36.5931 39.1913 36.6922 39.1913 36.7917C39.1913 44.2007 33.1018 50.2069 25.5901 50.2069C21.2071 50.2069 17.3083 48.162 14.8209 44.9867C14.5856 44.8104 14.3703 44.6027 14.1828 44.3648L3.10442 30.1922C1.95272 28.7317 2.28178 26.568 3.76254 25.432C5.24331 24.2961 7.43702 24.6206 8.58875 26.0812L11.9342 30.361V9.47439C11.9342 7.90566 13.2504 6.60739 14.8409 6.60739C16.4313 6.60739 17.7475 7.90566 17.7475 9.47439V25.8298C18.1693 25.5358 18.6086 25.2649 19.0638 25.0189Z" stroke="white" stroke-width="2"/>
<path d="M33.2468 31.4043C32.7643 30.9342 32.1916 30.5615 31.5612 30.3071C30.9306 30.0526 30.255 29.9218 29.5725 29.9218C28.8902 29.9218 28.2144 30.0526 27.584 30.3071C26.9535 30.5615 26.3808 30.9342 25.8984 31.4043L24.8972 32.3792L23.8959 31.4043C22.9215 30.4554 21.5998 29.9223 20.2218 29.9223C18.8436 29.9223 17.522 30.4554 16.5475 31.4043C15.573 32.3531 15.0256 33.6402 15.0256 34.9821C15.0256 36.3242 15.573 37.6111 16.5475 38.5601L17.5487 39.535L24.8972 46.6908L32.2456 39.535L33.2468 38.5601C33.7294 38.0903 34.1122 37.5325 34.3735 36.9186C34.6347 36.3047 34.7692 35.6467 34.7692 34.9821C34.7692 34.3176 34.6347 33.6597 34.3735 33.0457C34.1122 32.4318 33.7294 31.8741 33.2468 31.4043Z" fill="white"/>
</svg>
