<svg width="33" height="33" viewBox="0 0 33 33" fill="none" xmlns="http://www.w3.org/2000/svg">
<path opacity="0.3" d="M16.5 33C25.6127 33 33 25.6127 33 16.5C33 7.3873 25.6127 0 16.5 0C7.3873 0 0 7.3873 0 16.5C0 25.6127 7.3873 33 16.5 33Z" fill="black"/>
<mask id="mask0" mask-type="alpha" maskUnits="userSpaceOnUse" x="6" y="5" width="19" height="24">
<path d="M25 5H6V29H25V5Z" fill="white"/>
<path fill-rule="evenodd" clip-rule="evenodd" d="M14.8344 16.5472V7.15085C14.8344 6.42683 15.4444 5.82764 16.1814 5.82764C16.9185 5.82764 17.5284 6.42683 17.5284 7.15085V15.7975C17.6379 15.792 17.748 15.7892 17.8588 15.7892C17.9611 15.7892 18.0628 15.7916 18.1638 15.7963V9.37285C18.1638 8.64882 18.7738 8.04962 19.5108 8.04962C20.2478 8.04962 20.8578 8.64882 20.8578 9.37285V16.5336C21.0687 16.6459 21.2723 16.7696 21.4678 16.904V11.5948C21.4678 10.8708 22.0777 10.2716 22.8148 10.2716C23.5518 10.2716 24.1618 10.8708 24.1618 11.5948V21.7811C24.1618 21.802 24.1613 21.8228 24.1603 21.8435C24.1613 21.8892 24.1618 21.9349 24.1618 21.9808C24.1618 25.4004 21.3398 28.1725 17.8588 28.1725C15.8277 28.1725 14.0209 27.2287 12.8682 25.7631C12.7592 25.6818 12.6594 25.5859 12.5725 25.4761L7.43862 18.9349C6.9049 18.2608 7.05739 17.2622 7.7436 16.7379C8.42981 16.2136 9.44641 16.3634 9.98014 17.0375L11.5305 19.0128V9.37285C11.5305 8.64882 12.1404 8.04962 12.8775 8.04962C13.6145 8.04962 14.2245 8.64882 14.2245 9.37285V16.9215C14.4199 16.7858 14.6235 16.6608 14.8344 16.5472Z" fill="black"/>
</mask>
<g mask="url(#mask0)">
<path d="M14.8344 16.5472L15.2356 17.2738L15.6726 17.0386V16.5472H14.8344ZM17.5284 15.7975H16.6902V16.6687L17.5714 16.624L17.5284 15.7975ZM18.1638 15.7962L18.1241 16.6229L19.002 16.664V15.7962H18.1638ZM20.8578 16.5336H20.0195V17.0275L20.4599 17.262L20.8578 16.5336ZM21.4678 16.9039L20.9889 17.5831L22.306 18.4884V16.9039H21.4678ZM24.1602 21.8435L23.323 21.8037L23.3216 21.8326L23.3222 21.8616L24.1602 21.8435ZM12.8682 25.7631L13.5302 25.2555L13.4621 25.1689L13.3734 25.1027L12.8682 25.7631ZM12.5725 25.4761L11.9099 25.983L11.912 25.9857L12.5725 25.4761ZM7.43858 18.9349L8.10118 18.428L8.09899 18.4252L7.43858 18.9349ZM7.74356 16.7378L7.23055 16.0834L7.74356 16.7378ZM9.9801 17.0375L10.6427 16.5305L10.6405 16.5278L9.9801 17.0375ZM11.5304 19.0127L10.8678 19.5197L12.3687 21.4319V19.0127H11.5304ZM14.2244 16.9215H13.3862V18.5154L14.7067 17.5984L14.2244 16.9215ZM15.6726 16.5472V7.1508H13.9962V16.5472H15.6726ZM15.6726 7.1508C15.6726 6.88776 15.9033 6.65517 16.1814 6.65517V5C14.9854 5 13.9962 5.96579 13.9962 7.1508H15.6726ZM16.1814 6.65517C16.4595 6.65517 16.6902 6.88776 16.6902 7.1508H18.3666C18.3666 5.96579 17.3774 5 16.1814 5V6.65517ZM16.6902 7.1508V15.7975H18.3666V7.1508H16.6902ZM17.8588 14.9615C17.7336 14.9615 17.6091 14.9647 17.4854 14.971L17.5714 16.624C17.6665 16.6192 17.7623 16.6167 17.8588 16.6167V14.9615ZM18.2035 14.9696C18.0892 14.9642 17.9743 14.9615 17.8588 14.9615V16.6167C17.9478 16.6167 18.0362 16.6188 18.1241 16.6229L18.2035 14.9696ZM17.3255 9.3728V15.7962H19.002V9.3728H17.3255ZM19.5108 7.222C18.3148 7.222 17.3255 8.18778 17.3255 9.3728H19.002C19.002 9.10977 19.2327 8.87716 19.5108 8.87716V7.222ZM21.696 9.3728C21.696 8.18778 20.7068 7.222 19.5108 7.222V8.87716C19.7889 8.87716 20.0195 9.10977 20.0195 9.3728H21.696ZM21.696 16.5336V9.3728H20.0195V16.5336H21.696ZM21.9466 16.2247C21.7252 16.0725 21.4946 15.9324 21.2557 15.8051L20.4599 17.262C20.6427 17.3593 20.8193 17.4666 20.9889 17.5831L21.9466 16.2247ZM22.306 16.9039V11.5948H20.6295V16.9039H22.306ZM22.306 11.5948C22.306 11.3318 22.5367 11.0992 22.8147 11.0992V9.444C21.6187 9.444 20.6295 10.4098 20.6295 11.5948H22.306ZM22.8147 11.0992C23.0928 11.0992 23.3235 11.3318 23.3235 11.5948H25C25 10.4098 24.0108 9.444 22.8147 9.444V11.0992ZM23.3235 11.5948V21.781H25V11.5948H23.3235ZM23.3235 21.781C23.3235 21.7887 23.3233 21.7962 23.323 21.8037L24.9975 21.8833C24.9992 21.8494 25 21.8153 25 21.781H23.3235ZM25 21.9808C25 21.9289 24.9994 21.8771 24.9983 21.8254L23.3222 21.8616C23.3231 21.9012 23.3235 21.9409 23.3235 21.9808H25ZM17.8588 29C21.7988 29 25 25.8613 25 21.9808H23.3235C23.3235 24.9393 20.8808 27.3448 17.8588 27.3448V29ZM12.2061 26.2706C13.5114 27.9302 15.5587 29 17.8588 29V27.3448C16.0965 27.3448 14.5304 26.5271 13.5302 25.2555L12.2061 26.2706ZM11.912 25.9857C12.0449 26.1535 12.1971 26.2998 12.3629 26.4234L13.3734 25.1027C13.3212 25.0638 13.2739 25.0182 13.2328 24.9664L11.912 25.9857ZM6.77599 19.4418L11.9099 25.983L13.235 24.9692L8.10117 18.428L6.77599 19.4418ZM7.23055 16.0834C6.19723 16.8729 5.94283 18.3895 6.77818 19.4446L8.09899 18.4252C7.8669 18.1321 7.91748 17.6514 8.25658 17.3924L7.23055 16.0834ZM10.6405 16.5278C9.83699 15.5129 8.29976 15.2664 7.23055 16.0834L8.25658 17.3924C8.55978 17.1607 9.05575 17.2138 9.31968 17.5471L10.6405 16.5278ZM12.193 18.5058L10.6427 16.5305L9.3175 17.5444L10.8678 19.5197L12.193 18.5058ZM10.6922 9.3728V19.0127H12.3687V9.3728H10.6922ZM12.8774 7.222C11.6814 7.222 10.6922 8.18778 10.6922 9.3728H12.3687C12.3687 9.10977 12.5993 8.87716 12.8774 8.87716V7.222ZM15.0627 9.3728C15.0627 8.18778 14.0734 7.222 12.8774 7.222V8.87716C13.1555 8.87716 13.3862 9.10977 13.3862 9.3728H15.0627ZM15.0627 16.9215V9.3728H13.3862V16.9215H15.0627ZM14.4331 15.8206C14.1941 15.9492 13.9635 16.0909 13.7422 16.2446L14.7067 17.5984C14.8762 17.4807 15.0528 17.3722 15.2356 17.2738L14.4331 15.8206Z" fill="white"/>
<path d="M21.4071 19.4943C21.1835 19.2774 20.9181 19.1053 20.6259 18.9879C20.3338 18.8705 20.0206 18.8101 19.7044 18.8101C19.3882 18.8101 19.075 18.8705 18.7829 18.9879C18.4907 19.1053 18.2253 19.2774 18.0017 19.4943L17.5377 19.9443L17.0738 19.4943C16.6222 19.0563 16.0097 18.8103 15.3711 18.8103C14.7325 18.8103 14.12 19.0563 13.6684 19.4943C13.2168 19.9323 12.9631 20.5263 12.9631 21.1456C12.9631 21.765 13.2168 22.359 13.6684 22.797L14.1324 23.2469L17.5377 26.5496L20.9431 23.2469L21.4071 22.797C21.6307 22.5802 21.8082 22.3227 21.9292 22.0394C22.0503 21.756 22.1126 21.4523 22.1126 21.1456C22.1126 20.8389 22.0503 20.5352 21.9292 20.2519C21.8082 19.9686 21.6307 19.7111 21.4071 19.4943Z" fill="white"/>
</g>
</svg>
